<?xml version="1.0" encoding="utf-8" ?><svg xmlns="http://www.w3.org/2000/svg" xmlns:xlink="http://www.w3.org/1999/xlink" width="819" height="1024" viewBox="0 0 819 1024"><clipPath id="cl_3"><rect width="819" height="1024"/></clipPath><g clip-path="url(#cl_3)"><path fill="#a78bfa" transform="matrix(0.999756 0 0 1 -102.375 0)" d="M727.5 617.534C733.244 611.578 738.432 607.089 745.423 602.277C777.648 580.093 836.51 558.101 837.138 511.838C837.481 486.571 812.774 471.997 789.961 473.273C773.772 474.178 759.295 478.979 747.831 491.104C732.423 506.228 727.349 535.31 744.26 551.181C747.871 554.57 752.686 556.476 757.644 556.226C760.705 556.073 767.17 553.336 768.015 550.191L767.709 549.514C764.741 549.812 763.536 550.429 760.223 550.237C754.997 549.934 749.783 545.732 750.105 540.02C751.2 520.55 777.268 521.619 787.368 533.047C797.212 543.147 794.029 559.199 783.736 567.972C765.447 583.593 735.236 576.849 720.711 559.356C712.981 550.047 706.16 536.727 704.747 524.799C695.092 443.301 817.505 405.664 865.69 464.455C897.449 503.204 877.308 556.794 841.595 584.419C825.652 597.187 806.872 606.371 788.094 614.187C776.663 618.945 765.344 623.248 754.736 629.787C748.925 633.37 746.202 639.598 741.543 643.683L740.595 642.513C739.446 644.199 740.123 649.932 740.889 651.781L742.006 652.265C746.659 649.434 747.589 642.8 758.61 644.557C761.46 645.012 764.092 647.164 765.53 649.7C767.232 652.764 767.634 656.383 766.646 659.746C762.361 674.378 740.767 676.96 728.354 672.893C709.33 666.659 702.161 648.387 710.487 630.567L710.135 629.741C681.969 667.258 640.017 686.439 594.739 692.992C489.942 708.158 410.605 660.527 329.334 601.053C294.026 575.215 253.641 547.42 211.954 533.073C198.971 528.738 185.585 525.722 171.998 524.07C166.486 523.421 159.898 523.171 154.71 522.449C161.143 510.933 175.158 501.424 187.827 498.242C234.282 486.575 281.423 508.023 325.187 520.937C360.482 531.352 392.581 536.75 428.793 528.081C442.749 534.198 457.313 538.822 472.242 541.879C528.441 553.756 607.904 552.742 664.091 539.042C669.245 537.786 679.021 533.946 684.07 531.968L688.88 530.075C693.555 533.094 698.961 536.219 702.925 540.131C705.714 542.883 707.215 547.09 709.023 550.506C712.429 558.06 718.074 563.743 724.484 568.679C727.326 582.199 726.13 590.38 722.973 603.599C739.262 592.268 755.103 585.823 774.186 580.822C755.379 590.392 737.58 598.621 727.5 617.534Z"/><path fill="#a78bfa" transform="matrix(0.999756 0 0 1 -102.375 0)" d="M710.135 629.741C711.102 627.08 715.001 621.833 717.095 619.87C715.219 623.627 713.007 627.207 710.487 630.567L710.135 629.741Z"/><path fill="#a78bfa" transform="matrix(0.999756 0 0 1 -102.375 0)" d="M174.796 518.186C250.4 513.876 333.415 585.196 398.854 620.524C423.068 633.37 448.671 643.406 475.164 650.437C534.03 666.674 616.474 665.498 671.037 634.826C693.472 622.214 708.323 606.565 715.044 581.452C714.586 592.28 713.999 597.159 710.009 607.207C689.836 653.335 634.517 675.994 587.617 681.97C557.067 685.862 529.121 683.92 499.159 677.306C459.599 668.573 423.943 652.183 389.475 631.108C329.724 594.961 275.453 544.502 206.969 525.481C193.908 521.853 182.027 520.365 168.667 518.941C170.051 518.656 173.259 518.371 174.796 518.186Z"/><path fill="#a78bfa" transform="matrix(0.999756 0 0 1 -102.375 0)" d="M845.52 457.405C851.43 459.094 860.625 469.217 864.175 474.206C874.47 488.427 878.601 506.196 875.638 523.5C868.792 563.378 831.028 591.121 795.968 606.189C780.62 612.785 722.96 630.272 741.154 654.721L741.041 655.448C737.397 655.618 733.597 649.27 733.472 646.042C732.517 621.462 765.891 613.792 783.421 605.532C792.962 601.036 801.82 597.778 810.845 592.388C845.001 572.763 875.057 538.545 870.496 496.626C868.612 479.316 858.86 467.716 845.52 457.405Z"/><path fill="#a78bfa" transform="matrix(0.999756 0 0 1 -102.375 0)" d="M787.285 460.699C800.235 459.243 815.258 462.426 826.539 468.657C874.673 495.247 849.732 549.003 811.478 570.622C808.455 572.33 805.294 574.95 801.849 575.929C802.045 575.491 808.204 571.303 809.07 570.751C839.209 551.543 865.588 511.244 832.166 481.052C793.37 449.115 727.66 472.482 729.083 526.264C729.391 537.888 735.484 546.925 742.62 555.615C717.622 542.44 721.419 503.979 737.778 485.466C751.182 470.296 767.313 462.566 787.285 460.699Z"/><path fill="#a78bfa" transform="matrix(0.999756 0 0 1 -102.375 0)" d="M718.47 621.908C719.169 624.091 714.783 632.168 713.856 635.976C712.519 641.546 713.584 647.421 716.789 652.167C724.43 663.683 744.21 669.718 756.236 661.099C760.707 657.895 761.363 655.04 762.077 649.96C762.482 652.991 762.66 655.068 762.787 658.124C758.273 672.534 738.791 672.813 727.42 667.035C720.202 663.372 714.788 656.928 712.422 649.187C709.091 638.215 713.675 631.175 718.47 621.908Z"/><path fill="#a78bfa" transform="matrix(0.999756 0 0 1 -102.375 0)" d="M780.169 535.781C786.784 538.536 790.875 551.917 786.381 558.189C781.289 565.294 775.259 567.38 767.226 569.148C765.543 569.397 765.119 569.342 763.452 569.283C778.869 563.031 790.65 553.731 780.169 535.781Z"/><path fill="#a78bfa" transform="matrix(0.999756 0 0 1 -102.375 0)" d="M555.645 195.715C562.132 195.64 568.62 195.793 575.095 196.174C612.609 198.704 679.232 222.785 677.969 270.483C677.616 283.784 666.78 298.301 656.797 306.578C635.951 323.86 608.064 332.437 581.746 337.206C576.433 338.162 567.289 339.179 562.264 338.766C575.625 335.824 588.804 333.572 601.692 328.879C625.066 320.367 652.522 305.973 663.369 282.335C667.759 272.921 668.15 262.13 664.452 252.424C659.366 239.044 643.679 224.958 630.897 219.335C635.424 223.514 639.569 227.365 643.098 232.461C649.467 241.542 651.899 252.811 649.84 263.71C646.609 280.943 633.828 294.565 619.53 303.929C567.192 338.209 493.374 340.355 433.082 335.598C419.919 334.559 400.171 332.492 387.516 330.169C450.051 366.895 417.9 429.919 353.363 427.106C336.754 426.382 320.721 423.096 308.338 411.18C291.969 395.428 300.847 368.367 324.461 369.541L324.55 369.825C320.943 369.995 315.085 374.091 313.033 376.989C310.985 379.823 310.203 383.379 310.873 386.81C313.332 400.085 330.015 404.239 341.641 401.817C344.307 401.088 346.891 400.086 349.351 398.825C355.624 395.685 360.848 390.589 362.945 383.751C364.781 377.625 364.106 371.021 361.068 365.393C354.463 352.989 337.118 344.516 324.386 340.852C263.336 323.28 185.282 348.865 167.1 415.045C161.803 434.325 161.237 455.733 167.151 474.995C169.317 482.049 172.939 488.459 176.443 494.844C156.409 475.658 142.933 450.647 137.927 423.364C127.323 367.953 155.543 317.083 207.116 295.177C269.865 268.523 334.874 285.779 399.741 291.526C436.857 294.815 476.116 294.301 512.87 288.042C538.779 282.572 572.401 275.85 589.254 253.489C599.575 239.786 591.165 225.688 578.354 218.154C551.086 202.118 519.224 204.924 489.962 211.419C507.437 200.209 535.312 196.622 555.645 195.715Z"/><path fill="#a78bfa" transform="matrix(0.999756 0 0 1 -102.375 0)" d="M519.989 303.156C547.249 297.937 574.503 290.232 596.44 272.51C617.748 255.295 617.548 232.107 595.841 215.344L596.331 215.119C604.06 218.76 614.149 228.404 616.76 236.616C626.517 267.302 590.467 286.451 566.863 294.182C551.736 299.136 537.339 302.121 522.053 304.25L519.989 303.156Z"/><path fill="#a78bfa" transform="matrix(0.999756 0 0 1 -102.375 0)" d="M258.148 294.804L258.308 294.794L258.495 295.078C244.422 298.418 235.499 300.101 221.843 305.818C190.053 319.126 166.01 339.497 152.479 371.532L152.377 371.672L152.065 371.345C154.229 359.364 163.576 343.975 171.316 334.773C192.927 309.083 225.566 297.702 258.148 294.804Z"/><path fill="#a78bfa" transform="matrix(0.999756 0 0 1 -102.375 0)" d="M396.131 350.799C400.846 353.486 406.041 362.615 407.516 367.747C414.231 391.104 397.189 406.102 377.25 412.452C376.203 412.752 374.711 413.039 373.611 413.287L373.476 413.039C401.313 399.734 413.512 379.087 396.131 350.799Z"/><path fill="#a78bfa" transform="matrix(0.999756 0 0 1 -102.375 0)" d="M501.964 305.649C506.172 305.555 515.518 303.848 519.989 303.156L522.053 304.25C516.826 304.916 511.559 305.657 506.307 306.026L501.964 305.649Z"/><path fill="#a78bfa" transform="matrix(0.999756 0 0 1 -102.375 0)" d="M535.616 201.304C538.083 201.005 545.852 200.533 547.87 201.606L545.994 202.029C543.629 202.09 535.177 202.465 533.531 201.614L535.616 201.304Z"/><path fill="#a78bfa" transform="matrix(0.999756 0 0 1 -102.375 0)" d="M490.458 307.035C493.568 306.327 498.825 305.32 501.964 305.649L506.307 306.026C503.048 307.103 494.274 307.052 490.458 307.035Z"/><path fill="#a78bfa" transform="matrix(0.999756 0 0 1 -102.375 0)" d="M622.446 487.055C623.754 487.262 634.338 496.103 636.65 497.634C651.244 507.297 667.233 517.537 682.642 525.769C642.666 548.942 536.709 545.139 492.099 539.838C471.006 536.746 455.843 533.5 436.281 525.112C454.523 517.748 487.125 502.06 501.401 487.875C504.084 489.051 506.84 490.054 509.651 490.88C535.283 498.284 598.819 500.097 622.446 487.055Z"/><path fill="#a78bfa" transform="matrix(0.999756 0 0 1 -102.375 0)" d="M455.634 725.543L456.177 725.699C456.463 726.944 457.086 729.681 457.643 730.574C462.115 737.739 481.792 743.312 489.984 745.186C527.668 753.658 567.918 754.515 606.09 748.93C620.28 746.854 654.112 741.547 658.04 725.393C666.657 727.724 678.488 732.59 682.563 740.929C688.899 753.893 677.811 760.726 668.198 765.495C647.503 775.855 609.875 780.458 586.712 781.415C540.95 783.306 490.615 782.264 447.375 765.486C441.236 763.104 429.78 757.363 427.744 750.781C422.971 735.349 445.247 729.064 455.634 725.543Z"/><path fill="#a78bfa" transform="matrix(0.999756 0 0 1 -102.375 0)" d="M500.048 695.544C505.374 697.301 516.833 699.146 522.524 699.887C554.431 704.042 581.446 703.352 612.504 695.5C617.429 710.356 629.106 714.956 642.73 720.032C645.988 721.245 649.491 722.185 651.902 724.704C654.806 733.9 622.515 741.222 616.117 742.587C588.237 747.399 562.564 748.051 534.197 746.24C522.758 745.51 460.748 739.654 462.331 724.927C466.225 718.447 492.685 717.655 500.048 695.544Z"/><path fill="#a78bfa" transform="matrix(0.999756 0 0 1 -102.375 0)" d="M557.84 432.218C573.788 431.207 590.381 432.84 600.026 447.347C606.155 456.564 603.126 455.934 612.481 463.641C588.566 475.148 567.24 474.071 541.323 472.587C535.372 472.246 528.511 470.936 522.823 470.757L522.396 470.747C541.743 476.523 588.469 479.316 606.687 469.85C608.611 468.652 610.586 467.693 612.603 466.662C617.167 468.065 623.541 470.523 623.733 476.028C623.784 477.5 622.732 480.485 621.456 481.265C602.355 492.935 574.643 491.376 552.828 491.731C539.037 491.542 511.964 489.394 501.932 480.718C500.833 479.768 500.02 477.408 500.357 475.839C501.862 468.836 506.963 470.318 511.275 467.048C510.837 465.803 510.751 465.779 509.971 464.71L510.252 463.611C513.063 460.241 519.872 457.356 523.967 455.413C526.607 436.782 541.859 433.097 557.84 432.218Z"/><path fill="#a78bfa" transform="matrix(0.999756 0 0 1 -102.375 0)" d="M573.171 435.863C578.7 435.972 590.571 441.2 588.653 448.118C587.475 449.805 587.042 449.844 585.095 450.767C583.323 451.096 581.614 451.542 579.835 451.339C586.118 443.973 579.706 439.542 573.171 435.863Z"/><path fill="#a78bfa" transform="matrix(0.999756 0 0 1 -102.375 0)" d="M482.478 221.721C500.252 221.038 525.483 221.146 541.786 228.42C504.763 222.85 430.824 231.073 397.539 251.994C394.357 253.994 389.913 258.448 389.53 262.367C389.157 266.171 390.189 267.794 392.417 270.661C401.61 277.998 414.812 277.296 426.04 276.744C396.029 284.957 342.407 270.5 389.93 241.728C412.54 228.04 455.91 222.82 482.478 221.721Z"/><path fill="#a78bfa" transform="matrix(0.999756 0 0 1 -102.375 0)" d="M564.229 384.931C565.263 385.488 567.535 390.639 568.051 392.004C573.134 405.441 588.875 415.61 575.484 428.972C570.683 429.201 564.9 429.017 560.026 428.981C556.402 428.903 552.919 428.616 549.307 428.342C548.681 427.645 548.083 426.923 547.516 426.177C535.566 410.457 552.16 393.738 564.229 384.931Z"/><path fill="#a78bfa" transform="matrix(0.999756 0 0 1 -102.375 0)" d="M566.722 397.806C569.277 400.157 574.852 409.829 575.612 413.442C577.104 420.528 575.548 424.54 568.124 426.037C565.818 426.014 563.372 425.865 561.056 425.766C576.947 417.116 568.899 411.022 566.722 397.806Z"/><path fill="#a78bfa" transform="matrix(0.999756 0 0 1 -102.375 0)" d="M269.335 351.708C274.368 350.967 288.477 351.576 293.848 352.275L294.005 352.746C244.355 356.076 199.842 378.862 179.94 426.664C178.657 430.063 175.198 440.891 175.257 444.202L175.305 446.358L175.321 447.278L174.657 447.798C174.506 447.484 174.271 447.059 174.278 446.711C175.368 392.437 217.494 356.149 269.335 351.708Z"/><path fill="#a78bfa" transform="matrix(0.999756 0 0 1 -102.375 0)" d="M247.941 391.006L248.946 388.486C249.255 394.21 250.1 398.195 253.321 403.071C258.655 405.648 262.736 406.4 268.687 406.864C252.335 408.98 250.418 410.464 248.717 426.967C246.657 411.947 246.591 409.752 230.886 406.824C235.76 406.06 239.062 405.566 243.606 403.512C246.341 399.581 247.974 395.946 247.941 391.006Z"/><path fill="#a78bfa" transform="matrix(0.999756 0 0 1 -102.375 0)" d="M456.18 363.655L456.946 363.809C457.625 367.859 462.762 373.547 466.774 374.076L467.962 374.936C462.143 375.559 457.372 380.135 456.938 386.03L456.132 386.391C455.854 380.858 451.217 375.613 445.614 374.983L445.65 374.519C447.2 374.225 448.367 373.808 449.853 373.323C452.733 369.712 455.269 368.167 456.18 363.655Z"/><path fill="#a78bfa" transform="matrix(0.999756 0 0 1 -102.375 0)" d="M501.531 249.969L502.448 250.087C502.444 253.675 503.689 254.922 506.254 257.489C506.911 258.145 507.577 258.793 508.25 259.433C510.029 259.675 512.036 259.898 513.778 260.252C506.042 260.594 507.891 262.004 502.788 266.57L501.87 271.652L501.89 271.466C500.235 266.316 498.29 261.306 492.134 260.883L492.408 260.073C497.085 259.986 501.497 254.453 501.531 249.969Z"/><path fill="#a78bfa" transform="matrix(0.999756 0 0 1 -102.375 0)" d="M120.467 344.053C122.149 346.067 124.265 347.875 126.212 349.661C123.797 351.88 122.651 352.855 120.677 355.484C118.934 353.564 116.833 351.539 114.991 349.679C116.844 348.008 118.737 345.887 120.467 344.053Z"/><path fill="#a78bfa" transform="matrix(0.999756 0 0 1 -102.375 0)" d="M637.267 341.395C639.408 343.816 640.432 345.176 643.102 347.103C640.471 349.431 639.646 350.153 637.464 352.961L637.329 353.151C636.193 350.634 633.979 349.105 631.876 347.338C634.473 344.947 635.193 344.308 637.267 341.395Z"/><path fill="#a78bfa" transform="matrix(0.999756 0 0 1 -102.375 0)" d="M526.388 358.348C528.014 359.478 529.577 361.272 530.97 362.729L527.04 366.707C524.647 366.267 523.703 364.405 522.331 362.423C523.544 361.045 525.06 359.641 526.388 358.348Z"/><path fill="#a78bfa" transform="matrix(0.999756 0 0 1 -102.375 0)" d="M431.379 257.774C433.716 258.726 434.881 259.486 435.402 261.979C435.022 264.014 434.334 264.295 432.658 265.755C430.36 264.637 429.215 264.387 428.687 261.794C429.044 259.923 430.054 259.182 431.379 257.774Z"/><path fill="#a78bfa" transform="matrix(0.999756 0 0 1 -102.375 0)" d="M291.942 447.924C293.027 448.798 295.081 450.89 296.172 451.932L292.079 456.073L287.669 451.812L291.942 447.924Z"/><path fill="#a78bfa" transform="matrix(0.999756 0 0 1 -102.375 0)" d="M445.614 374.983C443.23 375.31 438.371 375.269 435.858 375.265L435.467 374.007L435.344 375.209L434.916 374.117L434.846 375.122L434.365 374.283L434.352 374.984L433.937 374.706L434.849 374.228L434.904 375.228L435.195 375.296L435.597 374.123C438.477 373.964 442.778 374.253 445.65 374.519L445.614 374.983Z"/><path fill="#a78bfa" transform="matrix(0.999756 0 0 1 -102.375 0)" d="M492.134 260.883C489.189 261.047 487.318 261.066 484.369 260.962L483.973 260.154L483.029 260.533C483.987 259.631 490.802 260.031 492.408 260.073L492.134 260.883Z"/><path fill="#a78bfa" transform="matrix(0.999756 0 0 1 -102.375 0)" d="M247.941 391.006C247.863 388.832 247.822 384.308 248.509 382.385L249.11 382.824C249.266 384.761 249.077 386.552 248.946 388.486L247.941 391.006Z"/><path fill="#a78bfa" transform="matrix(0.999756 0 0 1 -102.375 0)" d="M501.531 249.969C501.388 247.403 501.091 245.389 501.705 242.904L502.108 242.865C502.733 245.106 502.656 247.764 502.448 250.087L501.531 249.969Z"/><path fill="#a78bfa" transform="matrix(0.999756 0 0 1 -102.375 0)" d="M466.774 374.076C471.09 374.009 475 374.355 479.284 374.687C475.865 375.006 471.378 375.22 467.962 374.936L466.774 374.076Z"/><path fill="#a78bfa" transform="matrix(0.999756 0 0 1 -102.375 0)" d="M456.132 386.391L456.938 386.03C456.993 387.599 457.304 390.944 456.383 392.07C455.803 389.802 456.005 388.778 456.132 386.391Z"/><path fill="#a78bfa" transform="matrix(0.999756 0 0 1 -102.375 0)" d="M455.967 359.565C455.952 357.678 455.814 356.861 456.494 355.078C457.25 356.275 456.992 357.977 456.97 359.496L455.967 359.565Z"/><path fill="#a78bfa" transform="matrix(0.999756 0 0 1 -102.375 0)" d="M456.97 359.496L456.946 363.809L456.18 363.655L455.967 359.565L456.97 359.496Z"/></g></svg>